<mxfile host="Electron" agent="Mozilla/5.0 (Windows NT 10.0; Win64; x64) AppleWebKit/537.36 (KHTML, like Gecko) draw.io/28.0.4 Chrome/138.0.7204.97 Electron/37.2.1 Safari/537.36" scale="1.5" border="0" version="28.0.4">
  <diagram name="Page-1" id="ebQjVzU91OkPXuFwU88t">
    <mxGraphModel dx="1280" dy="907" grid="1" gridSize="10" guides="1" tooltips="1" connect="1" arrows="1" fold="1" page="1" pageScale="1" pageWidth="1100" pageHeight="1700" math="0" shadow="0">
      <root>
        <mxCell id="0" />
        <mxCell id="1" parent="0" />
        <mxCell id="5Rh6sSmCLg1GtMQXwpnh-10" style="edgeStyle=orthogonalEdgeStyle;rounded=0;orthogonalLoop=1;jettySize=auto;html=1;exitX=0.5;exitY=1;exitDx=0;exitDy=0;" parent="1" edge="1">
          <mxGeometry relative="1" as="geometry">
            <mxPoint x="452" y="60" as="sourcePoint" />
            <mxPoint x="452" y="60" as="targetPoint" />
          </mxGeometry>
        </mxCell>
        <mxCell id="doEv76RoAJkuPeesmXGi-1" value="ACE Integration Server" style="swimlane;whiteSpace=wrap;html=1;fillColor=#eeeeee;strokeColor=#36393d;" vertex="1" parent="1">
          <mxGeometry x="550" y="240" width="360" height="140" as="geometry" />
        </mxCell>
        <mxCell id="doEv76RoAJkuPeesmXGi-2" value="&lt;font style=&quot;font-size: 18px;&quot;&gt;Tea Application plus configuration&lt;/font&gt;" style="rounded=1;whiteSpace=wrap;html=1;fillColor=#ffe6cc;strokeColor=#d79b00;" vertex="1" parent="doEv76RoAJkuPeesmXGi-1">
          <mxGeometry x="240" y="30" width="110" height="100" as="geometry" />
        </mxCell>
        <mxCell id="doEv76RoAJkuPeesmXGi-12" value="&lt;font style=&quot;font-size: 18px;&quot;&gt;Credential Script&lt;/font&gt;" style="shape=process;whiteSpace=wrap;html=1;backgroundOutline=1;fillColor=#D8D8D8;" vertex="1" parent="doEv76RoAJkuPeesmXGi-1">
          <mxGeometry x="10" y="50" width="120" height="60" as="geometry" />
        </mxCell>
        <mxCell id="doEv76RoAJkuPeesmXGi-6" value="&lt;font style=&quot;font-size: 18px;&quot;&gt;HashiCorp Vault&lt;/font&gt;" style="shape=image;html=1;verticalLabelPosition=bottom;verticalAlign=top;imageAspect=1;aspect=fixed;image=data:image/png,iVBORw0KGgoAAAANSUhEUgAAASIAAAEhCAYAAADbKq0YAAAAAXNSR0IArs4c6QAAAARnQU1BAACxjwv8YQUAAAAJcEhZcwAADsMAAA7DAcdvqGQAAFYbSURBVHhe7Z1ZbCzZed//VV29LySbSzfZTbLZ7GZzZ3O5vLzL3EWzjyzZI0sRIL3EsoxEAZI8BHk0lBh5zEOA2EjgOEGsKMh4nIls2JINPwiWFTu2BpbHYzkIDEmIrNgzc2c0Gs348pK9VOVhzv/M1+c27/COuHSzzw8osFhbV50651/f+c7yOUEQBLBYLJZzxDU3WCwWy1ljhchisZw7TqvVCkKhkLld02q14DgOjjqGNTvHcbput1gsFxuWfd/3AQCu68L3fQRBAMdx9IIH6IXr+74+SRIEAdrttl6CIDhy4fHmNovFcvFhmZdawnVTX47SB6fZbAbNZhORSERbPUEQoNFo4ODgAPF4HK7rot1uw3XdDnXTFxFqFygVPMqCslgsFwsKj+M4ej0UCmldaDQaAIBwONxVP0AhOjw8RCQSged5cBwHjUYDr776Kr797W8jnU4jFArpKlq3hVD9oMwzi8Vy8fF9H61WC57nod1u4+DgAMlkUmtJJBJBNpvF1NQUwuFwV23QFlEoFNIqdu/ePbz88sv4vd/7PXieBwBot9vvneQ4cF1XW0gQVTlZN7RYLBcfClEkEkGj0cDdu3cxPDwMx3Gwv7+PQqGA1dVV7OzsIBaLaYNH4rTb7QBGPW9/fx9/8Ad/gF/5lV/Bd77zHfzoRz+Co8wu1u+kRcTtsu5n/pDFYrmYuK4Lz/MQBAFarRZarRaSySR830ez2cSNGzfw1FNP4ZlnnkE8Hte1L4lzeHgYhMNhtFotLSTtdht/+qd/iueeew5f+cpX8H//7//t8IRDCE03gbJYLIMDa0fUAdaYHMdBOBzGpz/9aXz0ox/FrVu34HkePM+7r3rmyhYxXjQajaJYLOLKlSvI5XKIRCJAF5Hp9j8Xi8UyGLBqRveN67potVoIhULI5XJYXFxEuVxGIpHQDmuT0C/8wi/8CyqaVKlwOIxMJoO/+qu/wmuvvYa33367o+olW9C6VcnkNovFcrFxVEt5KBRCoFw8hUIB165dwzPPPINarYZoNIpGo6Fb1SQuxYfmlKua6sPhMPL5PDY3N7G4uKjNKSk0pl9IbrdYLIMHW87j8ThmZ2dx9epVTE9PIx6Po91uH1ljcqWgsH7HPgGJRAJbW1tYW1tDLBbraHo7SoiIrKbZxS52udgLhAgFQYChoSGUy2Xs7u5idHRU+5hpNZmEfv7nf/5fsE7HA33fh+u6CIVCGBkZwRtvvIE//MM/BETnJSItKkdZVTzOYrFcfFjuaciEw2FUKhU88sgjeOqpp5BIJOAoAycUCt3nqAYAl2omfUSe5+k+RalUCouLi3jmmWcwOjoK3/e79wNQNwArQhbLhSAUCt3nkjkKipCjfEW7u7vY2dlBMpnsEKmj0D4iaTJRlHjhUqmEn/qpn0KhUOjo+OiIpnvewIN+zGKx9Acsz9JAcbp0ZOZfakAkEsHIyAguXbqE1dXVjmoYNaMb99tIXUilUiiVSqjVasjn8zg8POwQIv7YwcGBfgCLxdKfsGy32+2OZnmWbbN6RYHyfR/j4+O4cuUKpqamEIvFOvY/yFA5lhDFYjHkcjlsbm6iWq1qZzaFiBeXviOLxdK/sDplNkjRR8xt8phwOIyZmRl86EMfwszMjBYiQr2Q1yPHEqJwOIzh4WFsbGxgaWlJj8iHcfEH/ZDFYukPaGSgi79XtozJYwLVUlatVvHII49gcnIS0Wi041we241jCRGUQs7Pz2NtbQ3lchnRaLSjlS0IAniep2/UYrH0L9KgkLUfaQ1J/5HruqhUKlhbW8P8/DxSqRSghEsKG69tcmwhAqAV78aNG8hms4CwiFw18I3/WyyW/oSCAyUwpl+H/h6KUDgcxtDQEOr1OlZWVhCPxxFSPaw5hAzCdWNeD8cVIqpjJBJBqVTCo48+iqmpKT3ilorX7aYtFkt/QSFiuZZl2hGtadwej8cxNTWFra0t7UOmZtDRbV7T5FhCRHzfx9jYGK5cuYKFhQVks1ndbdv3fRweHmrryGKx9DcUG4oKRQhKC5rNJnzfRzabxcbGBlZWVjAxMYGDg4MO9wwtogfVlI6lGFSxQHnGs9ks6vW6HoPGfdIMs1gs/Y0s9yzXbKan0CSTST2mLJ/P3+egllbVgwyUo/cYSHMqFAphc3MTGxsbSCQS9/2AFSOLpf9hmWd5NoUppIaAVatV7O3tYXh4GFAjM7qJj9QQk2MLEZQAQU2ctr6+js3NTWSzWf3DkUjkPlGyWCz9D0WFZd3zPKRSKRQKBVQqFdRqNYRCITQaDT043hQuakM3Q+WhVINzUruui2QyiUqlgg996EMYHx8HhFObyseb5/IgRbRYLL0HyyxFpNlsaiHxPA+XLl3C9vY2kskkotHofeNQpSDxet104FhCFBgxi3ihQqGAp59+GtPT0wiHwx0OKkIx4g10uwmLxdJbmGXVUZYNJzZjJ+fd3V2srq4CAKLRqJ7Nlecc1wg5lhD5aipIjjNptVpwXRcjIyNYWFhAqVTC+Pg4PDUhNgUpEEEaTSGzwmSx9CYsl9IpzW20jHK5HK5evYpSqYRMJmNc4eE5lhBRLHgjnBogkUjo/gOVSkW3mpkCwyrbUVgxslh6B5ZXGhC0hmhIRKNRTE9P4/r165iamrqvpeyDcGwhYk9JiIiN7FG5vb2NlZWVDhPMFCOLxdI/SOFxxQBYABgeHkalUsHu7i7Gx8dPZLaNYwuRq2ZxbLVagNENfHl5GfV6HdPT03rELUXJdFZTXd/PSrJYLOcLyyuFiA1VlUoFq6urmJ2dRTweN0/7QBxLiCCsIsdxOjznAJDJZLCwsIBbt25hdHQUUH4iKTZHWUhHbbdYLOeDNCCktcMa0ObmJlZXV5FKpU7EGsLDCFGgRtc7jqODMVJEQqEQZmZm8OSTT6JYLOpR+KbF0010um2zWCznizQ8WI7j8TgmJyextbWFxcXF+/b/OBxLiGiWUXwkrLKNjIxgd3cXCwsLGBsb63qurY5ZLL0PyywXjicdGRnB8vIyarUaJiYmOlrUflyOJUSErWKe5+lmeZpxsVgMY2NjOg5aJBLRion3aTk7arvFYjkfTMMhlUqhXC7rMWXhcPhEy+2xhIhiwx+mENFx7XkewuEwwuEw6vU61tfXu8ZB47Wkgp7kw1gslpPHcRwMDw+jWq3i6tWrGB4ePvFyeywhgroZT4QZkoLCemIQBFhaWsLS0lJHl2/zOvJc2WnKYrGcPzQ82IE5FAphdHQUc3NzWFlZQTQa1R2cT6JahocRIhjWjOd5HSLjKOfW8PAwlpaW8NRTTyGbzSJQU4eYIuaKAXQWi+X0Yc1FljtZpvk/DN9uNBrF5cuXsbOzo2fbCLr4i38cHkqIJBQWQiEKh8Mol8v4yEc+0hEHjcfL/kXyf4vFcrqYZc5cTNrtNjzPw+joKK5evYqNjQ3zkBPjAwvRg0in05ibm0O1WsXExAQajYauUwaip2az2dSiZLFYTg9HdbtpNBq6HyDLnilENCoAYHx8HHt7eygUCojH43qf9P2ehL/oVBSAc9hubm6iUqloP5AUI2n6WSyW04OC063MsSzKskmi0ShmZ2dx69YtFItFRCIR3buaQtXTQhSJRPR0ssvLy7obuK8G0FGYqMIn8SAWi6U7tGJMqwdGYxGtI4pLJpNBpVLBtWvXkMvl9FQ/rup1fVIihNMSIqiHYpyjubk5xGIxBCIIo6MGzVKlLRbL6UHRkNUxbkcXsXIcB6VSCSsrK5ifn0cymbyvrHJdCtwH5VSEiA83PDyMhYUFXLt2DdlsFr6a10gmiMViOV0CEdZHbmM5pYXD8hgKhZBKpbC+vo6lpSUkEomOhimeL2s1Py6npgRBECAWi6FUKuHWrVuYnJzUHSEhVPSkHsRisXSHoiGtH7kuq1oAEIvFkM/nsbW1hYWFhQ7RkuW127YPyqkJER+McdAWFxf1GDSqa6PR0MdaLJbThYIjRYllzxdxykZHR7G5uYn19XVMTU3p7Tz+JITH5FQUgDfq+z4ikQgmJiZQr9dRq9V0pA9TpS0Wy+khfUOmNcSyCACJRAKlUgnXrl3Tsy8GR0Rz5raT4FSECEbVKxKJoF6vY2NjA8lkUu+jGlsxslhOj24iwu0UokDEKatUKrhy5YqOU8bzpPCcpAjhNIUIRhy01dVVbGxsYHR0VHUxf7eZ3zmh+UwsFkt3KDSmr8dV/YEcI05ZtVpFrVZDNBrVvau7ic5JGhKnIkTS1OMDpNNpVKtV3Lp1S/mK3uu9SUzVNbdb3uOoNDG3m//LbQ9auh1PH0O363fbJ/ebPOx2yYPu1dIdKUBcgiDoaMWORqPY29vDzs4OksnkfVP5SGTad9v/sJyJEDGTTk9P4/HHH0ehUNDxj8xMZWauo7YPGmaadFvn/90WE8fo3t9tMY8/ap8UIXP/Udu6rfP/bstR+y3Hw0wrWjOtVkv7ckdGRrC3t4f19XWgy3hSk5N8B6ciRNLkc1RHqVAohEwmg3K5jPn5eYyOjuLg4EAf3818hGH2dfviDgKOYXEclVYQncxkJpKd0CBMdTYW+GI2Pi7yC8pz5D7eD1TV24xdJ8/9IPfPUeLmOzfv1zzfcj9Mf5n2fB9Mv/HxcVy+fBmzs7NIp9PmJU6dUxEidMmEjuMgkUigWCxiY2MDc3Nz8FWHqPcTFyZW0CVm2iBhFlymLYWeU7NQgLoV0uOmnxQPKSLyfHn9bvcm9x11zFH3T8ExzzE57vNY3gtoYRKPxzE7O4tr167p2RfPmlMTIoiM5ygljkQiGBsbQ71ex9LSkm7KJ0dlKjMzdjvmotMtA0GkGQszLVGmGc/jcVJQ5DVMy0NuNxd5nPlezGub92Fy1P0fZWEdJYqWBxMIS1L+7zgOstksqtUqdnd3MTY2pj9kZ8mpClGz2dTTyXLddV0sLCxgdXUVhUJB97ZmhjqqUDDhHpSpLyrdBIHpw2pRs9lEo9HQ0zywIAdiOI2s6sh0dI+YG8pXE6cznp1ZBXu/e+NvPOiYo+7f/HrzHvkM5r1ajkZ+DPg++D5dY0xoIpEwTz8TTlWImGEIM9bo6ChqtRp2d3f1/Lfm4hzxtZMFaFAIunTRl0s3zGO5zSzg3bbLa8tjKSjyN03hedjrH3X/xDxOfowGMS98EGQa8oMD5YcbGRnB5uYmVlZWkEwm4Qq/0VlyKkLEjMeH9tXUAY6aAiQej6NUKuHmzZvI5/Pw1JSzZsY6TkYdBMyCDJU28i/XZZqZ/9OSkYLATElLR57HdWJez/wrRcK8zsPev7kwDeQiz7E8GGlF8m88HkehUEC9XsfCwoKuFp8HpyJE7XYbBwcHOsM0Gg04xjQDuVwO165dw8LCArLZrD5XFrqgi2V0XgnVCzBNzAJpbg9UqwjTytzHdyHnEoco1BQn813IqhmvT5GQIuOqahQju/D65n0+6P7l/fA3uB+qs2w4HNZ9XSwPhmnK9xgEAUZGRrCysoKFhQVMTEx0vMOz5lSESGZgIjOV7/uIxWIoFovY3NzEwsKCDj0kC49kkMXIdd2OSc9lwadwmGkn90u6Fe5Ade+nBSvPhyr0bNEyr2cey/uR14dojj/u/UvM/+X9S0vOcjQyzYMgQDqdRrlcxuXLl08lTtnD4gSn8OvtdhuNRgPhcBiOEh6Z2ThXNQD8/u//Pl544QV88Ytf1A7ttpgqpFvGPYVb7mn49feV87itnPsUD+mElh8A0xKBKPhQndnYoU2KAL+Y/I1YLKZFhAWf+3kOr81zAjUnubzWw9y/vE/ev7wnqHxm5hnL0Xiep9NxdnYWTz75JD7zmc+gUqlgaGhIpy+Xs+RUhIgP22q14KhxLKyeRSKRDqF5/fXX8fzzz+Nf/st/iUajgcPDQz25N485hVvsK5gxmA6B6gqRTCaRTqeRTqcRj8d1/w8eFxJN+bQamMGazSb29/fxzjvv4O2338aPfvSjjt9wHAexWAzpdBrZbBapVAqxWExXj9qqxUXeHz82QRCg0Wjg3r17uHv3Lt566y388Ic/PPb985pSiOT9O46DRqOBu3fv4u2339aL5cFEo1FApWe9XscnPvEJfO5zn4OrWlTpq4XIJ2fFqQgRoeCEQiHdjE9VJs1mE1//+tfxy7/8y/jjP/5jvPrqq3CU1RSoKgMzoeu6+gs7yDjKKpiamsLKygquXLmCYrGoLQV5HDOUmWatVgt3797FV77yFbz00kt45ZVXOjKfo6J7zs7O4plnnkGlUun4ogbCIuLxXAJlVe3v7+OrX/0qvvnNb+K73/2uPhaqqjY1NYW1tTXs7e1hamqqo3oG9b4hPmxyX7vdxt/93d/ht37rt/DSSy/hzp07et+gwPSS70Qi3z/dIY4S+J/5mZ/Bxz72Mdy+fVsbCefRkVET9ADf/e53g1/91V8N9vb2gkQiESSTycDzvCAUCgXRaDTwPC/wPC+IRCJBKBQKHMcJAAzUIp/ZcZzAcZygVqsF//gf/+Pgz//8zwPf94MgCALf97uuE7nvnXfeCf7pP/2nwdzcnL4mF9d1g8nJyeDxxx8P/uiP/qjjfPOaEu73fT+4d+9e8PnPfz5YX1/vuG8Ageu6wcrKSvDP/tk/C771rW8Fvu8H7XZbn9tt3eTu3bvBP/pH/ygoFov3pddFXxzHCTzPC8LhcOB5nk5X8z2GQiFdZmKxWJDJZILp6engC1/4QnDnzp0gCIKg2WwGzWazaxqfFafirH5YhoaGsLCwgFqthvHxcdy7d0/7LWgVOcK3ZH75LZZBgpaO9LlBNNFLy5JWkqc6Do+Pj+ORRx5BoVDQVTV53fOiJ4QomUxidnYW9Xod8/PzWoTeTZj3zE7TPLdYBhX64mTjBJTwdFugwnzNzs7i0UcfxfT0NGKxmD7vvMtVTwhRNBrF+Pg4NjY29IRMTOggeK8znKwPWyyDCj/SUjykBdStvAQiTtn169cxOTmJSCSij7NCpHBdF+VyGYuLi3q+IiYSE5aOazqvLZZBxBSbblUxuZ3b5ubmsLS0hJmZGSQSCX0d87jzoGeEyHEcPQbtypUryGazCFTrCxNV9ouxWAYZszsDcUT/LAqM53nIZDLY2NjA8vIyYrEYXDX0ijM08prnVbZ6SogSiQTK5TI+9KEPoVAoIBwOdwgRjztvM9JiOU9Y1WJZkNYMy4q0khKJBKamprC5uYlqtaoFR1pW/OgPvBBBKfLExASuXr2KSqWCkZERQPQnaTabHf9bLIMMBYdCQnGiqHA6lWw2i3q9jtXVVeRyOTQaDX0s4fnnRU+V6EBFh52cnMT6+npHJzrpGzrPBLNYegFaPk6XYTEsL1At0nNzc7h69SomJyc7elezGker6jy7xfSMEMmESSQS2NjYwMrKChKJhE5sJrLFYulsKeP/sox4nofR0VFUq1Xs7e3p8WQUMFOIztNp3RNCRLOQDjYAWFlZQb1ex8TEhB6ZTyfbeSSUxdLrOMox7ajhGul0GtPT07qzcCgU0oPRKTqyaifXz5qeECJ06VCVzWZRq9Vw7do1PV+RmUhUcgkTlwl9EeBzyi8Xt5stiWYadYPHBF3mADL3u6p1RbbS8Jhu55nX4wh/nuuK1k+oMWfm8x21SMz7HzT47FCWj3wvUP6jeDyO3d1dbG1tIZFIdMyiQMz07ZbWZ0HPCJHM/EEQIBqNYnZ2Frdu3UI+n9d9iHisxEw4JuZFEyP+NU1rdBGiwOioxoxrprNMS5kpeT6/kjLt5SJFgP/zd+S6fCcUUilK5vUlvJ/3u/9Bg+nBNA1EwMRIJIJsNovd3V2srKwAqmc14wlKZD6R62dJTwgRE5DrbEYcGRnB6uoqZmZmMDw8fCxn2kXNpKagsBA7akoMOXWKTEPSbDb1/EDEV4H1mDlDam4gVpFdNSEbhQMAGo2Gnt6FaUzBcUTVgK02sVgMyWRS3yvP4W8EQYDDw0McHh7qcVOtVku3+MjfbTQaHYLVbrcRjUbvGzN10aGgszy0Wi2dnky3sbExbG9vY3p6+lzilD0spzoNyHHpVnBCoRCazSbeeust/Kf/9J/w27/923jxxRc7vrZSueW5R23vV+RXis/jOI6e4fKRRx7B9PQ0PM/TBZXncGGTrRSAg4MDPPfcc3jxxRdx584dbWkxjUdGRlAul/HTP/3TqFarcMTAY07UBmXZyP5e/Kj4vo8vfelL+MY3voHvfe97+nnk/W9tbeH69euYnp7WVi+fkWLoOA4ODw8BVZWDSofDw0N88YtfxIsvvog33nij4/oXHb6DQE1AF4/HdZokk0ns7u7ik5/8JB599FGUSqVjfcTPk54QInJwcABHxeBmJvd9H1/72tfw/PPP4z//5/+sRYgZXxZQ81Gcc2oBOC1oVbCwplIpTExMYGZmBul0ukOgKTZQBZriEFKzJ0Kl7be+9S289tprHdYG0zQajSKVSmFpaUlHW+F+pi3X5cwI7XZbW1cvv/wy/vZv/xb7+/v6uiSZTGJiYgKzs7PIZDJwlCUVCN8Un8UUQL7vl156Ca+++qp+vkGCotxqtTqEaHZ2Fk899RQ++9nPYn5+HkNDQ+apPUfPCFEQBDqzJhIJPVmT53l444038MILL+Bf/at/hTfffBMHBwcdhYCFgstFxFECzQLK6lFYTSDP7TJdpBBJ60WuHxwcaL+CFCt+QX3fRzQa1f255Hbel6PEkf8HQQDP8xCNRvHDH/5QWzO0big4/C06USEm05P3yeu7qjrCYxzHwf7+foeIDhJ8F+12u8NSvHnzJp599ll8+tOfRjKZPN8Jz45JTwmRnJVRFqh2u43/+T//J/7Df/gP+PrXv46/+Zu/AYwqC6/RI49z4jhKlFlAZYGVz830kOknLSJX+Htoccj/oa7B49pqSlh5XfmXx1MoPM/TPeA9z9Mix+uZv8d7oPi1jbBGrqqemb3q+czd7ueiI/M9302gxH9oaAif+tSn8BM/8RO4ceNGh/j3Mj3jrPZ9H2EV6aGlIsIyg3ueh1KphCeeeAJTU1P662kKTz8k+I9DW0wWLwsg11lomQYsyDJNWOiZeVnwpUXB7VJEQkaEj24Z3BHOal+FkZLXpYCy+kXMa/JY3qu8X3mcL6pogwTThdBXlEgkMDs7i42NDczPz3eUk16nJ4TI9/37WkmYeMyY4+PjuHLlCiqVCrLZrN4eGM263QpHv+Oq1isKNf0vUhhYyFsqogXFRQoKj+MxTC/XdRGJRDquL6tnrVZLt8zJ63Jdpj9/i9flX16PYsmF+Eq4WiqqCNS75W/zN+T9M23kdQYFpjfXAWBkZATr6+uo1WrI5XJAH32ce+YNyi8c/RGBMOnj8TgmJyd1HDQWGClI5vW6rfcjgRHcsPOZOwu9XFhwfRHOidugqk48z7SMKBrmfVCsZHpTeCgcfG9ygjteXxYensd74D4Kl7x/iq+8f95jv7/fh4VpINOcccp2d3eRz+f1fF7ok/zfEz4iZjYWGPoZHGXqM+P5qgXthRdewBe+8AXdL4ZfR1kAJeb//YZ8LhZcWWgZ7ZTHcIHItHRYMq1YsO/du4dGo3FfGtLcb7VaHUNrotEoAtU6wwwedBkeEA6HEYvF8Pbbb+Pw8LDjHfA8vt+w6l3NY/iMzBPyd9mIQWFtNpvakho0aLEGQYC5uTk8/fTT+MxnPoNyuaxbUftFqHtCiCAKDIwmZke0sDiOgzt37uDXfu3XdBw0ZsLAKKSyUPQ7nuchEonoTn/MWJFIRMcdY6dBpiGUGLTbbRweHmqh8lUrGI/99re/rWOO0QJiuoVCIUQiEZRKJSSTSW3VQDiNfVVNo5jI/Y7j4Pvf/z7efvtttFUVkcICZeUODw9jZGQE0Wi0o8BQDH1VZeMHqdFoIBaLIaRCVP31X/813nrrLe3MHiTYZN9qtXDlyhV8/OMfx2c/+1n9LiC6fPQ6PSNEEAXATDiZuQ8PD/G1r30N//7f/3u8+OKLeO211+A4jv4ieqKlhvTQI34gaL2YfrR8Po+VlRXdIVBaSjyPGZVpGqjqlaM6CT733HN46aWX8MMf/rAj3QMVlnh6ehrPPvss5ufnERgzZvI4X1Wd+D/UO2y1Wjru2CuvvKJFKFAfDcY1u3btGiYnJ/V5hPffbDZ1tazVaun7Pzg4wK/92q/hpZdewltvvaXP61c84VyWgi2R7zEej+ttP/dzP4ePfexjuHHjRkfnT6dPfESQsYX6hW9/+9vBL//yLweXLl0KYrFYEI/HdfymaDSq4zi5rhu4rqtjPvXzIp+BMatOMq4Z04np5jhOkM/ng6eeeir4wz/8w6Ddbh95TQn3+ycU16zdbuuYW+Yx77zzTvAP/+E/DAqFwn3p1W+L4zhBJBIJotFoEA6HdTrJGGVQ6cb3E41Gg6GhoaBUKgVf/OIXg9dffz3wfT/Y398P7t271/E+ep2ecVY/DJlMBrVaDeVyGdlsVvsg+PXkFzsQTc8WS69Cq4XVV+nwNx3ytJJYNZ2YmMDjjz+OSqWCdDoNR3V85fhBWZ3uZfpSiNLpNObm5rC+vo7Z2Vn4RquQXCBensXSqzDvskomhadbXnbVNB9zc3O4ffs2pqamdAMDhcvviA/Y2/SlEMViMeTzeayvr2NhYaFrqxHEy7VCZOllpFgwr8r/TXHi/vHxcSwuLmJ3d1f3rZPHU5Toz+tlev8OjyAUCmFhYQHLy8sYHx9HSA0PkFUyRrLsB9PUMthQOOhWIMy73C4tp+XlZWxsbCCXy+mqGC2h9jlG5Pgg9KUQ8aXlcjksLi5ie3sbmUymI+EdMZTBYullKCwQ1pHMt6avyPM8pFIprK2toVar6RqBPJ/XtT6iU4QvLpPJoFqt4pFHHkEul9PNn/I4i6XXYX6WImRaSHJ7PB7H1NQUVlZWMDc31yE+vI70E1khOgNyuRyuX7+OSqWioxTwBdy7d0+/GIul15HiwY8oq2JtEacsl8vhkUcewcLCAkZGRnT+brfbeoocWlH9kvf7Uoio+L7vI5FIYG5uDvV6HfPz8zrh+fKsVWTpB6RVY1pD/B8AUqkU5ufncevWLUxNTXX0SPdFCGlej1W6Xqf377ALTOBADZAdHR3F1tYWlpeXO7q3yxdrsfQqUoRgtJzJPnDM6wsLC7h8+bJuKeuW36VFZYXolJGJvbKygpWVFaTTaW2SRiKRjhdssfQiFA75wWTVink5HA4jk8lgZmYGc3NzOmqrPMfzPCSTSThiNoV++Qj3pRAFyrknnXjZbBaLi4u4ceMGRkdHzVOOjfl16hXkV5JfOLku95v3b2ZGmenbxkRl5vlBlzmemP48h9cznaKBGhvWVoOWeS1+5QNjgjX5O0c9r9zv9JEz9kHwuZiO5juFEqZ4PI69vT1sbW3pKVbMtGNVTO7rB/pSiGC0DgRBgFgshnK5jMcffxyFQkH3K3oY+uGl8ZllxmMG7gb3dTtGbmPBNhfTrGcamYXfvA7XuV2m7btf+feehceZ55nn8phu2/sdmT5SiOjziUajGB0dxe7uLlZXV/U5XCRSiPqFvhUivgC+LNd1kc1msbCwgFKphGw2q4XI/KJ2e3nokwxNh6Sr5m3ibAPdpsFgQTcLO9PN930kk0kkEgl9bV91hnPVPEecaoItNkGXFhn5VxaiIAgwNDSEoaEhXTD4u677XrWD46t4Hq8j35W0fPgbrVYL0WhUd1ztV95Lk3ffVbvdhqem3G00GgCAiYkJXLp0CcViEclk0rxE39NT04AcF1mo2KwZiUTQaDRw584dfOELX8CXv/xl/Mmf/InOtLSgjqKXk8Ex5pnmsxQKBdTrdVy7dg3FYhEhYz4insvMzTSDet5Go4Ff//Vfxze/+U28/vrrHWngOA6Gh4cxOzurpwHh78p0lIVH/jYFhvHovve9792X/tPT07h06RJu3Lih45rx3Zr32lbTj/AZAyWOv/qrv4pvfOMbFyKuGXtHNxqNjvBAQ0ND2Nvbw9/7e38Pt2/fxszMjM7XF4W+FiKICeU52Vez2cTv/u7v4r//9/+O5557Tn9JzUIm4b5eTQpXRFxloWy1WkgkEhgfH0ehUEAymdTWDAtxoKwXc44m7nccB//7f/9vvPnmm4AxnKCtYpPF43GsrKwgk8noeW4knGGRszzyN+ho/cu//EvcuXNHf+UhhCWTyWBqagqlUkn3jA+6jK3i8RSilppfyfM8vPjii/jbv/3brhZhv0Hnc9MImFipVPDMM8/gZ3/2ZzE7O9sXkVsflr4UIoj6szRpWVC/+93v4jd/8zfxb//tv8Xrr7+O/f39jnPNr7osoL0KBQViVkRXzQstZ0eUIsO0kULkqv5X3N5oNHB4eKirACE1CRvT1nEcZDIZLfIUOC6eil92eHioq1cQAiWniqWY+qp6GVIzQDIuW7f0l88ihSik4qG99dZbuHfvnq6G9zMcPd9Sk78xPR577DF87GMfw6c+9Sk9O+VFo2+FCCqeO4zpMH3fx/7+Pr72ta/hP/7H/4g/+ZM/wauvvnpfJufx8qtrHtMrOMLXA2UF8l5lAZYiJP93VdUJSiBMwYLwD/F4aUUy49Mq4UIxDIfDaKqYdI4xt7ZpJfG35DHcL++b9yLvzxUBFh1lEbVERJJ+hekg/w+CAJFIBMPDw/j0pz+t45TJYy4SfVvRlBnZNRyhqVQK5XIZe3t7Xceg8XyJzPS9hsyoFAx5/4Hwqcj0kIVYCg+vRSe3r6Z6dbqM3KaYSIuD12Ca09pyRPNxIAJm8hzeu2+MKOc6q3O8rvlO5LUC5ePqdxGCeHY+B9c5amBtbU2PKbuo9KUQ+aLliBmchZFVivHxcezt7aFcLmNkZKTji0N4Tq8TKIE1LQnzmeQ2mSbmuik0LNj83zNim1FcuI/iJK/H35D3KZH3QALRGtdut3UwBFpaPEaew9/iIsWsX5GCyzQEgGw2i3q9jsXFRUxMTBhnXSz68g3KlwURIgeiqpJMJlGpVLC1tYVKpdLxte03ZAGHqIrKdKAgs6Ca50tLhQU7HA7r6hKFhQWbx0nRkvfBa/LrzXTlPkdEfeX5EF9/CiDUO5PvRxZKLjxeihzFsR/fqcRXH1b5fyaTQblcxqVLl5DL5e7rRX3R6EshglFHZgFh5g9U/TqXy2F7exvLy8sdX/aj6NUMLQsmhBXDQh2LxRCPx/VcxZFIRG+Lx+OIxWK6vxD73SQSCaRSqY6WLJnRmaZQzcqxWExfPxwOIxqNIplMIplM6t+KxWJ6icfjSKVSWuwoeKYQeZ6nj02lUvo6/BuNRhGNRpFIJPQzxuNx/T/Frp8JRKugo4SbY8q2trYwMjKij5NCfZHoS2c1b1kWUDbphkTzruu6ePXVV/Hf/tt/w+c//3nt65BWg3yxZmHsFUIinFCgLJFAtUIlk0lks9mO2Sj5bGx5YVwwRzTL0+r53ve+h7t37+p04/Xbqrk9kUhgbGxMNydDpFMsFkO73cb+/r5uEWNBIq+//rqejoUta0zvcDiMRCKB0dFRJBIJhEIh3cJG64hWHj8wLdVtwVHhhF555RW88847HVZxP+I4DhKJBALVZH/58mV84hOfwD/4B/+gY+Kzi0pfClE3WPhc1eLD9cPDQ3z1q1/FL/3SL+HP/uzPcOfOHUBU50wLSZr+vQKrLjTfWZAnJiawvLyMRx55BIVCATCqM7LwMiMH4qvabDbx/PPP4+WXX+4ozLw+45r9xE/8BObm5tTdvPchoCA2m00tHHJ/q9XC7/7u7+Lll1/Ga6+9pv1B/I18Po/l5WVcv35d37+s2lHUfNVixv3s+Le/v49f//Vfx8svv4wf/ehH6DWY/jJd+Ux8RuI4DuLxuN72mc98Bs8++yxu3ryp98OI1Huh6AgudEH5q7/6q+Df/bt/F2xvbwfRaDSIRCKB67pBKBQKIpFI4Hle4HleEA6Hg1AoFLiuG6BL7KnzXB42rpn8n7HACPfv7+8H/+Sf/JOgVCp1xM9ibLPJycng8ccfD/7oj/7ovnOPum673dbL/v5+8PM///PB2tpax33jGHHNWq3Wfevm7//d3/1d8LnPfa4n45ox7lgkEul4Zs/zOtJYLrFYLMhms0G1Wg3+63/9r8GdO3c60rPdbgeNRiNoNps6zS8KRztMLhDZbBbr6+uYm5vD0NCQ7pjHrxPUl7bdbmufhMXyQXFEHyo6+2nRcJ9cuK/RaGB8fBxPPPEEFhcX9eyLvnJms6X4wllD/eysfhhSqRRKpRLW19dRKpUAvOeMlf4iipLFchJIf11IOOxZNWMehKp+JxIJlEqljjnY+cHkR5PrF42BEKJoNIrx8XFsbGygVqtpi4f+CFln51fMYvlxMPOVbCCgAHEJVPcERqXZ2trqiEpD8ZHW00VjIIQI6ou0uLiItbU15PN5xGIx/XIhOvKxt7HF8kGh0FBgpCNfOuMpLBScjY0NbG9vY2JiAo6YAoRW00XoqnAUAyNEjmqlqdVqWF1dRSaTuS+T8C8zhsXyQTGrUNJfZPqIQmqWg7W1NSwvLyORSOjuEBBVPIrWRcyfAyVEmUwGc3Nz2NnZwcTEhB61bgrQRf3qWM4GU4TobJbN+LSGHNV/SMYp8zxP9x2SfqaLzMAIEZmYmMDVq1cxNzeHdDrdUQ3juhUiy4+L/LjJ6pj0FTWbTbTbbUxOTuKxxx7D/Pw8UqmU/iAGojMqe8CbIndRGCghCoIA6XQatVoNGxsbmJmZ0SYv9zPTWCw/Dt2sGAoR8xkAPSbyscceQz6fh+u6uoc7LSmee5EZKCFqt9uIRCKYnJzE5uYmFhcXOxyAzgWug1vOjm55iJaMbDnzPA9jY2Oo1WrY3d3VY8q6iRiMeaguGgMjRIEaw8PhCBsbG9jY2NBThARihLfFchJQfOQHjmISDocxNDSESqWCcrmM4eFh7aBmPD7ZmNJut3F4eHhhxWgghEh+gfhix8bGsLS0hGvXrukvkcw4x+Fhj/+gyN+Rv8VMy9YVIjM8z6HTU2biQI1Dk1NQwPBvcN10mvI6ZqFgWhPZL4vXo78DYkoT+WzmNfiB8I25lJwet2DlvUnnNNRzJxIJXL58GZubm9o57RiObIqTK+aCknngojAQQgSVKcLhsB6RHo/HUS6Xcfv2bUxNTT3QGWj+z21mATpN5G9wnZkzMHxb5v/oIiQ8juJgXl8WIB5n/oa5ftTC65Bu67wP87omvAfz+r0OxYTPGVVxynZ2drCysnKfUPEcug7cIz46F4WL+VQGfJGuGpnPsWbZbBbLy8sol8s6DprM3DJjmGITiIJ52oVB/haMDNpsNvH22293jJ53jagfvpjJkIWdHTczmQzS6XTHM7OwhMNhxONxnfnlEAVuo8BR5HhMW824yLmD+Nsy/dmCJK0m3gOv31ZRWnw1Ap/P5atpRcLhsB6N30vI54Oa8sR1Xf3s+Xweu7u7KBaLSKi4coPMhZkG5Li0Wi0cHh4iFovh8PAQd+7cwX/5L/8FX/nKV/DHf/zHWnBYGE3OM7lYmEmhUMDGxgb29vYwMzPTIRoUB1NUKV4Uo+effx5/+qd/qqdHkcI6MjKC+fl5PPvss6hUKnofhZDXp5iw8FHQ2+02fuM3fgMvvvgivv/97+vzKYyzs7PY3d3FzZs3O+KaER4biPmJ5L6DgwMdIIEhkXoFR0zS12639XxOBwcHGBkZwZUrV/DJT35SP3u3vDZIDJQQsfA1jThov/M7v4MXXngBzz33HFpqzmt0sYLIeSUZrSAW9FQqhYmJCRSLRaTTaS00LMBsBqaAcTk8PNTWBYMryvMoFJFIBKlUCrVaDUNDQx2jvykavCb9TJ7noa3mnPY8D3/xF3+BV155Rf8mC2agosAWi0XMzc0hk8kASkB5Tb4HGO9CCtPXv/51fP/73++wqHqFcDgMqI9fLBZDoPoFVatVfPjDH8bP/dzPoVgsIpVKmacOHAMlROywKB2k7XYb3/nOd/Abv/Eb+KVf+iU9o6CJLAg4JzFixqZYhNQ0sewhLgU0JCZSowCQdruNsJod8Y033sDBwYHex+PojwhU3HUKD31sFDkpGlynUESjUbz11ls4ODjQ5zLN22qmSE4/a94jofDRMuIzRiIRJBIJvPbaa9jf3+967nkTMiajC9RH4fHHH8fHP/5xfOpTn+poQBlkBlKIWKAD9XW+e/cu/uAP/gC/8iu/gm984xt49dVXjTPfxcwsZ510dKizGsRCSgsDhl+L22Uh53ooFEI4HNZNwqzSsbCzcJhWCc83t/vCh8PBmp4RYZbX5H3xehQZmZ6y4FIESVtNHRuNRtFoNDqs2F5AphMtw6YKiz46OqrjlF2/fl1bchStQWUgnNVEfrEhJkNLp9Mol8u4cuUKxsfHH5gpeA1Z4M8C3jcLLbdBCKLTZboJiJYmeS1fOXtpybDAU5BotZgCwULvikGbhIWO4kJBkunefsB84USmL5+Z26WY0dI6y/dwHHifXGeVmvH25LxY5rsZVAZGiALhV2ArDLcHQYDx8XFcvnwZs7OzemS+mcHNQikL0mniiFYk/j4LNYWBwiFjg/FYPosUAp7D9ZbqT8QvtDxHLlKoeC4LE69JceCxrmjtkvAceTzTVD4vn00WWvnM8p30GkzbIAgwMjKC9fV1LCws6Dhl3fLZIDIQQsRCxHVZWChO6XQalUoF9Xod5XJZWwdm4enGWWQkFlpHfWF5f3wGV1hBXMzCLYUF4mvNqo+8Pi0bHsd7cLtUlWTayqZ29hBmmvP68t4pLvK+iLTQeH9SuOS1egk+r1zPZDKYn5/XMz/Qqc93NOgMZArIgshCFY1GkcvlsLOz0xEHjYWw2/lH/X/SyIIqxYNCaQomCykLO88z9x9VkOU1QyEX8XgcyWRS/2WMNMYWk/sjkQjiKk5ZJpPRzm0KEZTviFUXKSoyHYMuk4rBGId11P2fN3xePle73cbExISefXF4eBiBcvjjjD5kvc7AOKv5mPIvM0pLxEH7f//v/+G5557DL/zCL2jTXxYiGBnnrJKPBTWkYpxJB60nwgbxOVzhVGah5v90evP8QIicFIWQatWanZ1FMpnU1ye8Xlu1wkkx4XW+//3v46233kKj0dD3QWuA90ZR4v8833wueW/yOPl/r+Co8ECBshJv3LiBj3/84/j7f//v6w6YdGD3mpCeBwMjRDAsIblOM9p1XRwcHOCrX/0qfvEXfxEvvfQS3njjDTiin4wr4qbJa54VjtHSBHVPMPrgyAIaCIsoEH4eswDzGJLJZFAoFPDTP/3TmJ+f1+kkj5VCZ6Zrs9nEb//2b+Ob3/wm/uZv/kZvf9D9S8zt5v2dddpTMGU6EDPNASAWi2kx/+xnP4uf/MmfxNWrVwGjC4b5XANJR3AhSxAEQfB//s//Cf7Nv/k3webmZhCNRoNo9N04aK7rBpFIJAiFQh2xqWTMsX5dHjau2VHIuGP37t0LPv/5zwfr6+v3/V6/LY7jBJFIJAiHwx3v+0Exy0KhUDAyMhJsbGwEzz//fPD66693pI/lPaxN2IWRkRGsra2hXC5jZGQEzea7rR6Bqia4IrZUWA2ktVxc+L6DLt0naAly4bGMFJPL5XDz5k09BEdaU6YFOMhYIeoCW9DW1tYwPT2tM59cgLOvGljOF1anYMQpg8oLZt5IJpOYm5vDjRs3MDU1pR338hibh97FClEX4vE4Jicnsb6+jmq1ep9DkRmIvg77ZbvY8H3zg+R0aa2T+5knxsfHsbS0hJ2dHYyOjupGAnmM5V2sEB2B67qo1WpYWVnBxMSEFiN+1aBaq3zVamS5uEiRYdXLdNbDcFgDwNraGur1OsbGxhCNRuGKFkOzBXLQsULUBX71Jicnsby8jI2NDQwNDel9EM3LcpvlYkLBkMLBbh3MK67oexWJRJDJZFCv17G4uHhfnynmF2lRDTo2JY4gCAIMDw+jUqngypUrOhY5zWnpoLRcfOiUhjG8RIoQ80MymUSxWMTa2hpKpdJ91TZ5TmD9RIAVoveHcdDK5TIymYzOSIGa5Ap25PRAYVbTOBQmUB0XW60WxsfHcf36dT3PEoXHVwONeR6MOb0HGStER+CocVCpVArVahUbGxv668bMyAxpv2gXH+kLIo4YZU9LmS1l169f19GETZ+SaUmb1x1ErBB1QX7BIpEIcrkctra2dBw0iMxjM9HF56iPjcwngYoSMzExgVqthp2dHQwPD+tjKDymAJmiNKhYIXoANJtDoRBWVlawurqK4eFheGp+GXPMluViY4pGYMQpy2QyqFQqWFxcRLFY1NPDcgmpGTVpbQeiFW7QsULUhUBVvehQBIDx8XHUajVsb29jaGhIH9PtS/kgzMzcC8h74hecsFrBQtcWA4ClpSCrqrwOj7koyPfGdOGHyvM8RCIRXL58GVtbW7q5nunJNJbrchl0rBAdAb9gjvp6JZNJlMtlPPLII8jlctokh5FBu9EPGc4sZNwWUkMbpAiZ4gMh3oT/9/IzPyzyPVJQ+IyxWEzHKVteXu44XlbNzOtcpPT5cbBC1AVmHle0hgBAPp/H1atXMT09jUQioU1rM6OZ0HKQSy9B0eB98bnYe5izPjpiLiQex3Pk8Y4IkRwKhXoy7tjDYooK04sdFPP5PJ544glMT0/rcWaW4zNQ04B8ENoqwJ+nJkD/wQ9+gF/8xV/El7/8ZXzrW9/S1RhZiPsR8ysdqH5Uc3Nz+OQnP4lardYhNq4KFgg18JdN0BRk3/exv7+PL33pS/hf/+t/4Tvf+U7H7/UbTpcWMm4Lh8O4efMmPve5z2F7e1tbzJbjY4WoC/zSs0DKjNdqtfCbv/mbeOGFF/A//sf/0M7Koyyifklefu0h7pk9hHd3dzE2NoZms4mQGuxJIXJU/LPDw0MERiDEdruNb37zm/jrv/5rvP322x2/1490ExfXdVEsFvGxj30M//yf/3OMjIxYi+gDYIWoC201FogTvlOYWN145ZVX8KUvfQn/+l//a/zoRz/S0SqIKUr9ksTyi0/LyHVdHdnk7t27eltIxU1zRQghKdh03r755pu4d++etpj6HZkugarCPvPMM/j4xz+OT3ziE12DBFjeH5tiXaDJbVpDJJfLoVqtYnl5WfeclVC4CDOvXHoR3re0BpvNJt58803cuXMHb775Jt5880384Ac/wJ07d/CDH/xAL9zH/a+//jpee+01bSn1MxQeV7R4QVVJR0ZGsLW1heXlZT0vVb8/73lghagLruqCL4UIQqCSySRmZ2dx+fJljI2NaUvCxMyQvSxCvC9TQAGg0WhofxALoxRbChctJUc4q3lOP8P3Lt+f7/tIJBKYmZnRY8rQ5SNkOR79nUNOGfpDKEiO4+j+IYVCAY899hiKxaIOmyMXibnP3H/eSAHpdm9mMz3UFCiOaj2SIsU0ozjLWGn9jBRdpkUul8PVq1cxOzuLdDqt00N+vCzHwwpRF3wVFA9CRNiHxlHWQDqdxuLiIlZXVzEzM9NhuvM8GF/IXv1asnDx/uQzmNUR3j+38RwWQDrvecxFwEwfABgaGkKlUsG1a9cwNjbW91bfeWNTrwuyYLFgmttisRhyuRy2t7exuLjY1YcgC6IUoF4TI/lsMKqQ5nOxMDJduI3XkWGOpDD3M1KIoJ7LHFNGEZZpZzk+Voi64Boz6UE1ZXM+IkdZCp7nYW9vD1tbW7rQdSt8LLgyM/cyjrIAaQVSdFj1gqpyQQhVOBzuGHvHc/js/Yx89pAazjE9PY1KpYJCoYBkMgkAeloYax09PDbFuiAzHjMVt0mhcdQsjqurq7hy5YqexVE24fJYCpe0IHoVWQ2R6w9aKFyE5/YyngqtLT8c5rp811DvMRaLYWtrC+vr6x19hvjezQ+R5f2xQvQApNMVKjPSqcv/k8kkFhYW8OSTTyKfz2vxYiaWy4Mcwr1CNwuGoiKrpjAGuppOaSlivQjfh/k+j1qYLrFYDJOTk7h06RKWlpa0CAPQDRmWh8em2gkwMTGBvb09lEolJBIJHBwcaGsgEL2N2TOZVRjL+UBrlyIiLTcpPtK6oegWCgV8+MMfRrVaRSqVgi86f0oL0fJwWCE6ARgHbXV1tWscNGZom1F7CylC0jqS70m+w0wmg2q1ihs3bnTMwMAqO46wKC3vjxWiEyAWi2FiYqIjDhoztPy6hkIh/WW1nB8UC74LR8QpkyIiq5au6ju2srKCer2OdDqt95vWk+XhsUJ0AjCzMpPmcjntLwiFQrrDXzKZ1F9Ry/lBEaKlI/1Epvhwu+u62NjYwMbGBoaHhxGoal04HNYfHR5H68hyfGyKnQD8KhYKBSwtLWF1dRVDQ0M6k0NlcNnZz3J+UFykBSPfj7RgXdU1IZlMYnV1FUtLS4jH44hEIlrA2GJo3+0HxwrRCeE4DkZGRlCpVHDp0iWMjY1ppzS/mI1GQ2d0y/kirR1f9aRnNY1WjaOq1YlEAsViEcvLy5idnUU4HNZCRAGjJWXF6INhhegEkOb9xMQErly5gunpacRiMd1S5or5e6zpfv5QhGQ1zTF8RY1GA61WC/l8Ho8++ijm5uaQTCb18e12GwcHBwipydF4nq16Pzy2RJwQtHoymQwWFxextraGYrEIX7WqcL/9YvYG3SwYCpEUE8a1+9CHPoSJiQk4YppYWlI8F7bV7ANjhegECVSHt0Kh0BEHTZr5PM5yfkgriPD90KoJ1HzUjN5y6dIlHb1Fio1pWVk+GFaIThBm7lAohK2tLWxtbekBkayi2S9m7yA/DlBiQqdzJBLB8PAwqtUq5ufnkc1mtc+PHxfP85BIJOCoKYQ5U6etej88NsVOAN/3O6aLDYIA+XxeTxNCv4L9YvYWcqCup6KTtNttLTRBEGB3dxfb29v6WGnd0qnNhf4lKW6W42GF6ASgr4AZ1Fdx0EqlEvb29jA+Pg5X9B8yq2qWs8cxxppJJ3VIRWTNZDLY2dnByspKh/CY1+H57FNkeXisEJ0AzLgUGzbTT05O4ubNm5idndVTRcgvpq2inQ8UDw7UdRwHjUYD7XYbkUgEzWYT+XweH/3oR1EsFu3YwDPACtEJwK8lMzgFKZ1OY2lpCevr65iZmQGMaVct5wf9Qb7va6Ghjy8SiaBcLnfMqGA5XawQnRB0QjuOg3A4jCAIEI1GMTU11dGC9jCtKxQ2a+6fLLREzaoy383Y2BhqtRp2d3cxOjp6X3XMcvLYFD4BmIHZ4kK/A1Qmr9frqNfrGBkZ0SFnYAwxkEjxOeoYy48HPxpQgkQfEQDd4pnJZDrel+X0sEJ0QjjGBPuyBWVqagqLi4tYWlq6Lw6aFZrzQb4jVpfD4TDGxsaws7OD5eXljmMtp4sVohPAEcM2aPZLqyadTmNubg6XL1/G6Ohoh8XEYy1nj2wpa7fbSCaTqFQq2NjYQKlUOnYV2vLjY4XoBDEnkPfV8A4AmJycxKOPPopCodARB60b9Ddx3XLysDotxWZychK3b9/G7OwsUqlUx9zjltPFpvIJ4BtjjviFldNDDA8P6ylCisWiPpZi1E2UrAidLnLUPOOU7e3t6ei93d6J5XSwQnQCUHikFcNtnBQtHo8jn89jc3MTtVqtQ4AeJEawgnRq0CoCoHvCr6+vI5PJ6H027c8GK0QngKsmz3KUw7rZbOohAzLgYCgUwuXLl1Gv1x9YNZPYgnDyOMacQ67rYn5+HgsLC5iYmEA8HkcQBB1BECynixWiE4CZmX/pBGW3f/oZXDXv8erqKra3t5HJZOCqOFk831NxthwjdJHl/fFEnDJTbOQ7gnhnkUgEmUwG29vbWFtbu29eIfshOBusEJ0gzNwsDKFQqCPWleM4yGQyqNVqeOyxxzAxMaGPD6lxTxQfWXCsGL0/TG+mH0WoW3pKOCZwZ2cH1WpViw/PMY+3nA5WiM6BfD6PmzdvYmpqCq7r4u7du7rFjaP4HTV4loXLcjQUGd+YttU8hmnpui7aKpx4oVDARz7yEczPzyMej6PZbGohsul+dlghOgeGhoZQq9WwubmJUqmkCwULEAuL9U8cD1ousjme1g8bDljVYhq7rotkMon5+XncunUL4+PjHRaQI6rJltPHCtE5EIvFkMvlsLu7i9XVVYTDYS1GsjoBo0+R5cFQaGghUZxg9Bui2LOlrF6vI5VK6e08n0Jk0//0sUJ0DrAwrK2tYXNzE9lsVlcDwuEwWq2Wnt+IVQ3L0VBkIKpgFPJu1TT+v76+jvX1daRSKd3aSX8ej5FWkuX0sEJ0DrCwjI+Po1wuY2VlBcPDwx1fcdd1taPbLEiW+5GWYyA6lEJV01jddVVL2dDQEOr1up4VIRKJaAtIWk6Ws8EK0TlAIUokEpiensalS5cwPj4Oz/M6fBzWR3E8pGDQOpKTnnleZ2tkKpXC7Ows1tbWUCqVEKg5iFhFlg5vK0ZngxWic8JxHESjUUxPT+PatWvI5/PwPE9XD4IgwP7+PgLlWLUcjVl9oni4qqOp674btKDZbKLdbmNychKPPfYY5ufnkUwmda/4VquFe/fuKfF67yNgxej0sTn8HOBX23VdZLNZLC8vY2lpCfl8HkCAcDiMkJrI3fL+0HJxjujEKKtpmUwGCwsLuH37NnK5HFzXRavV0tegs9sUN8vpYoXoHGCG930f8XgcxWIRm5ubWFhYgON0RoawHI9uQsTtrGqFw2Hk83ksLS1hZ2cHw8PDWoDk+TzPNhKcHTannwOucp6ydczzPFy/fh27u7uIRCI4PDxEq9VCLBYDxJSmlgdjWjL0FQXKB5TNZrG0tIRqtdoxQR0bBTzPQzweh6Mm1udYM2sZnT5WiM4BFhAWmkBF/FheXtajv9mv6GH9E4NcpaA1I6tXvuid7jgOLl26hM3NTT2sxqzKyW22seDssEJ0DtDs91TAvlarhUQigXK5jBs3bugY6wxLxEJylMi83/5BQD47hYgC46quEMPDw9ja2sLS0pLe3q36S0GKRCJd91tOHpvK54CrWnNgtMhMTU3h0UcfRbFYRDQaBdTUIezsaOkORYhN7o7qCBqo+PVsKfvwhz+Mqakpm549iBWic0BaL6wC+L6PVCp13yyOLFwPQu5/v2MvKlKI5NCMQIV1KpfLeOKJJ7S1aektrBCdA7JFRgpRJBLpmMWRX27TYdqtIA2qAEEIO9OA/iCm8+joqI5TNjIyYp5u6QGsEJ0DgWhSZuHhV7zVamFra0tPnGarEceD4ixFOlCdQev1OjY2NpBKpeDaITM9iRWic4BVMl9MWyGraoVCAYuLi1hcXEQ6ne4470EMegFj+rBKFovFMDExoeOU0Xlt6T2sEJ0DjhpCIKtoJBQKIZPJoFwuY29v776Qx8cpSIMoSIERuRUqnly1WsXGxgbm5uaMMyy9hBWic4R9VgCg0WjAV71/oVrQnnrqKUxPT+s4aMdhUEVI+tHYYpbL5XDt2jWUSiWkUiltdVp6DytE54Av4qDRZyHHQwHoiIM2PT0tzraYsCrGqm6g4siZccpg9Dey9A5WiM4BCo/0aZjb4/E4crkctra2UKvVjCtYTChGgXJQc/bFjY0NDA0N6WNwzOqt5WyxQnQOuGpyLjqsG40GIpEIQqEQ9vf3O/xGly9fxubmZsf5lk7o5Od6JBJBqVRCpVJBLpdDIpEAAB3s0gpR72GF6ByQ1QNHRJfw1EyB3BcKhVAoFLC2toZLly7p0eJQYiYL30UsXHxGVw0Spk/tqGelwKfTaWxtbWF1dVULPtP5qHMt54sVonPGFVFiQ6EQYrGYLjChUEi3/DAOmhQwFlBZOC+SKPEZ+UzyfwoUn5WtZpx9cWdnBwsLCx375LGW3sIKUR8wPj6O3d1dTE5OIh6Pw1VVOgoV/8cFGptG0fBVrDIufO5wONwxzzRUa1mxWMRP/uRPolqt6j5Yjhp7Zqf16F2sEPUBQ0NDWFpawtraGorFom4Z4gJhCclt/Yq0XKQjn3A7W8mgBJhxym7evKmj6BJpEVl6DytEfUAikUCxWMTW1paaxfG9ntnmVCEsoP2OK4ZimNWqQLUutlRQSh6fz+dRq9WwsbGBdDrdkQ6ODZjY01gh6gMoNNvb26jX64jH49qpfXh4CAjH7kWxiKRviI58Pp8cpyeFZXt7G5ubm4jH42irOGUQPa3lqHxLb2GFqI8oFApYWlpCrVZDMpnsqKJwnYLUz1CIJFJgpUi5qqVseHhYxymjD8nzPMCIAHsRhPoi0t85doBwHAdDQ0OYn5/H3t4ehoaGEKi5d6SVcBGEqBsUWyghkk3x6XQac3NzWFtbw+zsLABoR7Y8zwpQ73LxcuwFxBVN/MViEU8//TTGx8fhqilQZSsZBamfobBSOCg4gaqKUYR81aI2OTmJJ598EqVSCfF4XIuP7/s6Thyrdd2sLcv5Y99In8BqxdDQEFZXV7G6uopCodDhrL0oVQ+KCAxHNUWIVS0YccrYz0pWVSk+vIalN7FC1EcEao6dyclJXLp0CbVaDY1GAxDO6otQ4KQQSWjNUIg8z8PU1BSWl5extbWFTCZzXzWMlpAVpN7GClEfwILJKoXv+7h+/Tp2dnY6WpB8ETqnn5HVJ1a/pJAEQYBQKKTn+K5Wq0gkEvocPr+jmuxbrZZuQbP0JlaI+gD6OmSVq1gsYnl5GcvLy0in0x1VEfR5Bz75HPyfAsR4cJ7nIZFI4NKlS1hfX9cCTKuQFqIrxqn1a3oMAlaI+oCgi/M2lUphfn4eN27cwNjYmC6otI5Y6B4kSNx31P7zRD6rud11XSQSCR1oQHbypFUkn8vzPN2Ub+lNrBD1ASE1GJZfe3bMm5qawuOPP46pqSndqoYjLApJr4oPoagQWdUKh8PwfR+FQgHPPPMMCoWCFZkLgBWiPoAFkwLiquiwmUwG6+vrWFlZweTkpHla3yKrmaao+r6PRCKB+fl53VLW7z4xixWivoEFkkLk+z5isRiKxSLq9Tqq1WqHFSHPexC9ahnJ6qUvekW3223kcjksLS1hc3MTIyMjPfsMluNzf8619ByBGGnOZu1wOKyFZ2dnB1tbW0gkEh3WQb+KEKHPJ1CtZFw45i6ZTCIUCr3vc1p6HytEfYK0CNpqXmtum52dxerqascYNJ7zIHq1ANPqk4vv+4hGo5icnMTW1pYeU8Z0sPQ3Voj6ABZMHNGCls1mUa1WcfnyZWSz2fvO7Ue6CRH7Da2vr2NmZsY8xdLHWCHqI2R/mLYKPcTpQAqFAp588sn7WtDQRYzob+J6LxKoPkOyI+fk5CRu3ryJYrGIWCymn6tXn8FyfKwQ9QG0gmD4TejEhYqDxjFoxWIR6CJAJhSkXizI9Iex53g2m8X8/Dy2traQzWZtB8ULhhWiPoCiExijx+X2RCKBQqGA7e1t3cEPxxCjXkQKI5+RczEtLCzouajpuLf0P1aI+gCKjyNG17P6de/ePV0gHcfBzs4O1tfX4Rij1vtJkPi8HLLhuq4ezjI8PIxoNIogCLC/v68d95b+xgpRn0Ah4sKCyilUHTVFxszMDNbW1rC6uqotB9OSikQiCIfDxi+cPt3un/duHgPlE4tGoxgeHsb6+jqWlpY6wi31m8BajsYKUR9gFjizoFJgXNdFNpvF4uIibt68ibGxMV3NkULGsVdnWYgpPrwPrsv7evf/Tgc0Z19cXV3F3NxcR8BEPrel/7Fv8gLCFrR8Pq8tJlogjuPg4OAAjUZDbz9tTBGiE5qtYo6Idgu8J0TNZhP5fB5PP/00yuUyksmkvl9eoxcd7ZaH5/RzoeXMGR4exvLyMjY2NjA7O6sdvrKVjU5uKGvptJGOdf7fDW4PqThlc3NzuHHjhp4al1C8ztKqs5wep58DLWdOLBbDxMQELl26hKWlJcCYy5pVISlMp4kUQl/1CzJ/l8cQV8UpW1xcRL1e13HKZDXO7C9l6V+sEF1AWO3Z2tpCvV7XzmmKz3vVoKMtk5NE+nNoybDKKAVKChEA1Ot1bG5uIpPJoNVq6RhuUELFZzDPs/QfVoguIK6K9ZXP51GtVrG0tITh4eGO0EOBmmAMZyhG5jp/l1YOl3A4jEwmo+OUeZ6HcDiMkBrgSutOnmPpb6wQXUBcFWYonU6jVCrh6tWrGBsb0w5jXzl6nTOK+tFNLOgvooUkLbRkMolSqYTV1VXMzs7C932Ew2GEw2EtQtYKulhYIbrAuK6L2dlZPPXUU7p6w5keIfoXmSJx0tD/IwWP66xiyWra1NQUnnjiCZTLZcTj8Y7Q0YeHh1q8zur+LaePFaILiC8CC46OjmJlZQXz8/PaKmLBl1Wj04RWlykaUlBY1RoeHsbi4iJu376NXC4Hx3HQbDa1kJnVOcvFwArRBSQQ0S6SySQmJydRr9dRqVQQKN8QraKzgIJhCocjZptk9atQKGBlZQU7Ozs6rLZ5PK8j91n6m7PLjZYzwxET7Puqufzxxx/H1atXce/ePW1hnGWrEy0w3/fRarU6RMRXwRIZxXZxcRGpVEpbb/F4XFtA7Fnt2w6NFworRBcQVnmkJVIqlbCysoJqtYpUKgUIAToL60hWzfi70nLzPA+xWKwjThktN3Od1zmL+7acDfZNXkDMQuo4DjKZDObn53H16lWMjo5qQWChftjlg9DtGmy9Y5yyjY0NVCoVOEY1zDzP3G/pb6wQXWBYfaGjd2ZmBh/+8IcxOTmphUo6gE8LV/VrIuFwGJ7naUun3W6jWCzip37qpzA5OWnFZQCxQnQBoR8GSgRY2DOZDDY2NrC0tIR8Pg+ckRDRN8S/XOfvJpNJlMvlrmPKLIOBfeMXEOl74XAKX0XBKBaLuvpzVgWe90PhkVZaEASYnJzE4uIiVldXMTIycmb3Zekd7Bu/wEhLR1bFdnZ2sLm5iXg83hEf7bSg4LAHtbyvUCjUcT/SyW4ZHE43B1rOBVpC0kdEx24QBLoFjXP8nDZ0MlOQXNWUH41Gkc/nsbm5qceUBcYofMtgYIXoAuKqKTKCLtE/HMfB2NgYqtUqNjc3MTQ0ZJ5+4rCFi9UxWkWpVAq1Wg2rq6uYmZnR26XFZBkMrBBdYGQTN5vqo9EoQqEQisUinnjiCeRyuTOrmsHo4zQ1NYXbt29jenoasVjMPM0yQJxuDrScC7SEpBVEa0RaRdvb21hZWcHk5KR5iRNH/rbv+xgZGUGlUsHu7i5GR0e1xcRjLIOFFaILCIWIvhnZdM5hEalUCnNzc9ja2kKlUjEvcaLQIqLA+CJOWa1WQyaTua8aaRks7Bu/gNBH5Kr+QwcHB7pwMxYYVIsVh1ScJrwfOqxd18X6+jpWV1cRj8f1uDjel2XwsEJ0QaH14bqunpY1FAp1NNe7rou5uTmsr69jeXm5Iw4akdYMz5P+Hvk7bJ7vVrViS1gkEtFxypaXl5FMJrWTmpabZfCwQnTBcdXwCgqFnBjNdV2Mj49jaWlJj0FzjfFd8n9X+Jy43zw2JAao8lhWu1glLJfLWFlZQalU0gETYQigZbCwQmRBLpfD9evXMTU11RGwMaSm4GBU2Far1WFVSVGi/8nsLsCF/Zqmpqbw9NNPo1QqIRqN6ilJHDF1iWXwsEJkwejoKDY3N7G8vKzHoMGoltGykVUoWUXjdnMfrwMAqVQKlUoFt27duq/bgGPjlA00VogsSKfTmJ+fR71eR7lc7qhScYwYxUiOE6Pw8HgpVlKwoMQon89jaWlJhwhidY7nSmGyDBb2zVvgqJkPNzc3sb6+jlgsplu5ms2mHsnPKhodzxQoVzjEuZ0iRAvHdV3U63Wsr68jkUjo60j/EK9rGTysEFkA5Q+iE7lcLiOVSmmRoYVD64U+H4oM/9L6oV+I26PRKMbHx7G1tYWlpaX79tOysgwuVogsgBKT8fFxLCwsoF6vY3h4+D7BkRbQu0Ly3vnSAmIzPs9Jp9OoVqtYX1/HzMxMR3VOVvV4PNctg4MVIovGdV0UCgU8+uijGB8f72iKD1QTPJd3xeO9c6U1xNkXaenk83ncvn0bs7OziMfj2u/Ubrdx7949ALgvBLVlsLBCZAGEJTI6Oop6vY7l5WVMTEzooSIUCXk8RLWM6+ycyPOGh4dRrVZx/fr1I2dflNewFtFgcn+usAwcsvCzw+HW1hbK5bKe6ZEC4hidGOX5PI4Wk+d5mJqawvLyMur1OjKZDKCsJp4vh35YERpcrBBZOnBdF9FotGMMWiBatCKRCCKRiBYPv0t8MbaGZTIZrK6uYmlpCUNDQ7qKx6lreb12u41Go4Fms9nhX7IMDlaILICoakGJUblcxurqKiqVim5uZ5WLwkP/EUSnxlarBVcNco3H49je3sba2lpH1A5aTlwoPnK/ZbCwQmTpgFWssbEx1Go1XL58GSMjI3p/q9XSzmaKiBSktpoHKZVKYXJyEuvr65ifnwdEs765HlLDRlhNswweVogsHT4gVreCIMDs7Cw+8pGP6FhjtJocNS6M1pFpzTSbTRQKBTz77LOYmprS17ZYjsLmEEuHD4jO6Ha7jaGhIWxubmJpaQm5XE4fK8WK1TUpUhwycuPGDeTzeevzsbwvVogs8FVARlbLHDWrYywWw/T0tK5e0eKh+ED4jShMADA1NYWlpSWsra1hZGTECpHlfbFCZOkKq1O+72N7exv1el1PvM99nufpEEAUsFAohK2tLdTrdT3XkPX7WN4PK0QW7XRut9toNpu6MyKtn7m5OaysrGBubg6JREILDqtmrohTlsvlsLm5iVqtZuOUWY6NFSKLdj6ziuaricoc5cTmGLStrS0dBy0khnCw6pVOp3Xo6OnpaS1QrLJZLEdhhciicdU4sXA4rK2YaDQKz/MwMzODJ554AhMTE4BqpmeVjIIzOTmJRx99tCNOGf1KFsuDsEJk0ZYQq1x0VvtqlLzruhgbG8POzo4eg0YRgnJYZ7NZLCwsYG9vTw+YlS1xFsuDsEJk0S1ftF4oQr4YvpFOp1Eul1Gv1zs6KNKPNDMzg5WVFSwuLiKdTutrwgqR5RhYIbLAFZE+fN9Ho9GA53kAgHfeeUfP0BhScdA2Nzf1JPu0jBinjC1lQRCg0Wh0NOtbLEdhhciiHdNcZ09pz/O0QEEJUbVaxerqKmZmZpBIJBCLxTAxMYG1tTUsLCzocEWOGlkPYxybxdINK0SWDlwRldXzPCQSCd0q5jgO8vk8FhcXUa/XMTQ0hKGhIdRqNSwvL6NYLGofk7yOFSLL+2GFyPLQzM7O4qMf/SjGxsaQz+fx2GOP6Thl+/v7ujpmzmVksRyFzSGWh2Z0dBTb29u4fPkyrly5gitXrmBsbKyj1zWEk9o6qy3vhxNYu9nykARBgMPDQ3z5y1+G67q4fv06MpmMHpHvqYitzFrSB2WxdMMKkeWh4VCQd955BwCQSCT0xGdsMaPwsC8R/UwWSzesEFkeGvYxotVD4TF7UcusZf1ElgdhhcjygaFTmlUvChP/ctI0Wy2zvB/2M2X5wDActbSEpOhYAbIcFytElofG9300m004qvMj1FzWHNJBzKqaxXIU/x/exhGu1jif3wAAAABJRU5ErkJggg==;" vertex="1" parent="1">
          <mxGeometry x="80" y="210" width="140" height="140" as="geometry" />
        </mxCell>
        <mxCell id="doEv76RoAJkuPeesmXGi-11" value="" style="endArrow=classic;html=1;rounded=0;strokeWidth=4;entryX=0;entryY=0.5;entryDx=0;entryDy=0;exitX=1;exitY=0.5;exitDx=0;exitDy=0;" edge="1" parent="1" source="doEv76RoAJkuPeesmXGi-7" target="doEv76RoAJkuPeesmXGi-12">
          <mxGeometry width="50" height="50" relative="1" as="geometry">
            <mxPoint x="100" y="580" as="sourcePoint" />
            <mxPoint x="340" y="580" as="targetPoint" />
          </mxGeometry>
        </mxCell>
        <mxCell id="doEv76RoAJkuPeesmXGi-13" value="Kubernetes Pod" style="swimlane;whiteSpace=wrap;html=1;fillColor=#dae8fc;strokeColor=#6c8ebf;" vertex="1" parent="1">
          <mxGeometry x="260" y="190" width="660" height="200" as="geometry" />
        </mxCell>
        <mxCell id="doEv76RoAJkuPeesmXGi-19" value="&lt;font style=&quot;font-size: 18px;&quot;&gt;Vault Agent&lt;/font&gt;" style="rounded=0;whiteSpace=wrap;html=1;fillColor=#E6E6E6;" vertex="1" parent="doEv76RoAJkuPeesmXGi-13">
          <mxGeometry x="30" y="70" width="70" height="90" as="geometry" />
        </mxCell>
        <mxCell id="doEv76RoAJkuPeesmXGi-7" value="&lt;font style=&quot;font-size: 18px;&quot;&gt;vault&lt;/font&gt;&lt;div&gt;&lt;font style=&quot;font-size: 18px;&quot;&gt;/secrets&lt;/font&gt;&lt;/div&gt;&lt;div&gt;&lt;font style=&quot;font-size: 18px;&quot;&gt;/tea&lt;/font&gt;&lt;/div&gt;" style="rounded=1;whiteSpace=wrap;html=1;fillColor=#b1ddf0;strokeColor=#10739e;" vertex="1" parent="doEv76RoAJkuPeesmXGi-13">
          <mxGeometry x="140" y="60" width="70" height="110" as="geometry" />
        </mxCell>
        <mxCell id="doEv76RoAJkuPeesmXGi-25" value="" style="endArrow=classic;html=1;rounded=0;strokeWidth=4;exitX=1;exitY=0.5;exitDx=0;exitDy=0;entryX=0;entryY=0.5;entryDx=0;entryDy=0;" edge="1" parent="doEv76RoAJkuPeesmXGi-13" source="doEv76RoAJkuPeesmXGi-19" target="doEv76RoAJkuPeesmXGi-7">
          <mxGeometry width="50" height="50" relative="1" as="geometry">
            <mxPoint x="210" y="125" as="sourcePoint" />
            <mxPoint x="130" y="115" as="targetPoint" />
          </mxGeometry>
        </mxCell>
        <mxCell id="doEv76RoAJkuPeesmXGi-20" value="&lt;h3 style=&quot;margin-top: 0px;&quot;&gt;&lt;font style=&quot;font-size: 18px;&quot;&gt;Secret as one file&lt;/font&gt;&lt;/h3&gt;&lt;div&gt;&lt;span style=&quot;background-color: transparent; color: light-dark(rgb(0, 0, 0), rgb(255, 255, 255));&quot;&gt;name=tea&lt;/span&gt;&lt;/div&gt;&lt;div&gt;&lt;span style=&quot;background-color: transparent; color: light-dark(rgb(0, 0, 0), rgb(255, 255, 255));&quot;&gt;type=jdbc&lt;/span&gt;&lt;/div&gt;&lt;div&gt;&lt;div&gt;username=testUser&lt;/div&gt;&lt;div&gt;password=somePassword&lt;/div&gt;&lt;/div&gt;" style="text;html=1;whiteSpace=wrap;overflow=hidden;rounded=0;strokeColor=#FF8000;perimeterSpacing=0;spacingLeft=7;strokeWidth=3;dashed=1;dashPattern=1 1;" vertex="1" parent="1">
          <mxGeometry x="370" y="410" width="180" height="110" as="geometry" />
        </mxCell>
        <mxCell id="doEv76RoAJkuPeesmXGi-21" value="" style="endArrow=classic;html=1;rounded=0;exitX=0.5;exitY=0;exitDx=0;exitDy=0;fontColor=#00FF00;strokeColor=#FF8000;strokeWidth=3;dashed=1;dashPattern=1 1;" edge="1" parent="1" source="doEv76RoAJkuPeesmXGi-20">
          <mxGeometry width="50" height="50" relative="1" as="geometry">
            <mxPoint x="540" y="480" as="sourcePoint" />
            <mxPoint x="500" y="310" as="targetPoint" />
          </mxGeometry>
        </mxCell>
        <mxCell id="doEv76RoAJkuPeesmXGi-22" value="&lt;h3 style=&quot;margin-top: 0px;&quot;&gt;&lt;font style=&quot;font-size: 18px;&quot;&gt;Secret as ACE YAML&lt;/font&gt;&lt;/h3&gt;&lt;div&gt;&lt;span style=&quot;background-color: transparent; color: light-dark(rgb(0, 0, 0), rgb(255, 255, 255));&quot;&gt;Credentials:&lt;/span&gt;&lt;/div&gt;&lt;div&gt;&amp;nbsp; jdbc:&lt;/div&gt;&lt;div&gt;&amp;nbsp; &amp;nbsp; tea:&lt;/div&gt;&lt;div&gt;&amp;nbsp; &amp;nbsp; &amp;nbsp; username: &#39;testUser&#39;&lt;/div&gt;&lt;div&gt;&amp;nbsp; &amp;nbsp; &amp;nbsp; password: &#39;somePassword&#39;&lt;/div&gt;" style="text;html=1;whiteSpace=wrap;overflow=hidden;rounded=0;strokeColor=#FF8000;perimeterSpacing=0;spacingLeft=7;strokeWidth=3;dashed=1;dashPattern=1 1;" vertex="1" parent="1">
          <mxGeometry x="620" y="400" width="200" height="120" as="geometry" />
        </mxCell>
        <mxCell id="doEv76RoAJkuPeesmXGi-23" value="" style="endArrow=classic;html=1;rounded=0;strokeWidth=4;entryX=0;entryY=0.5;entryDx=0;entryDy=0;" edge="1" parent="1" target="doEv76RoAJkuPeesmXGi-2">
          <mxGeometry width="50" height="50" relative="1" as="geometry">
            <mxPoint x="680" y="320" as="sourcePoint" />
            <mxPoint x="610" y="325" as="targetPoint" />
          </mxGeometry>
        </mxCell>
        <mxCell id="doEv76RoAJkuPeesmXGi-24" value="" style="endArrow=classic;html=1;rounded=0;exitX=0.5;exitY=0;exitDx=0;exitDy=0;fontColor=#00FF00;strokeColor=#FF8000;strokeWidth=3;dashed=1;dashPattern=1 1;" edge="1" parent="1" source="doEv76RoAJkuPeesmXGi-22">
          <mxGeometry width="50" height="50" relative="1" as="geometry">
            <mxPoint x="390" y="420" as="sourcePoint" />
            <mxPoint x="730" y="320" as="targetPoint" />
          </mxGeometry>
        </mxCell>
        <mxCell id="doEv76RoAJkuPeesmXGi-26" value="" style="endArrow=classic;html=1;rounded=0;strokeWidth=4;" edge="1" parent="1">
          <mxGeometry width="50" height="50" relative="1" as="geometry">
            <mxPoint x="190" y="300" as="sourcePoint" />
            <mxPoint x="290" y="300" as="targetPoint" />
          </mxGeometry>
        </mxCell>
        <mxCell id="doEv76RoAJkuPeesmXGi-27" value="&lt;h1 style=&quot;margin-top: 0px;&quot;&gt;&lt;font style=&quot;font-size: 18px;&quot;&gt;Auth using service account name&lt;/font&gt;&lt;/h1&gt;" style="text;html=1;whiteSpace=wrap;overflow=hidden;rounded=0;strokeColor=#FF8000;perimeterSpacing=0;spacingLeft=7;strokeWidth=3;dashed=1;dashPattern=1 1;" vertex="1" parent="1">
          <mxGeometry x="140" y="410" width="180" height="70" as="geometry" />
        </mxCell>
        <mxCell id="doEv76RoAJkuPeesmXGi-28" value="" style="endArrow=classic;html=1;rounded=0;exitX=0.5;exitY=0;exitDx=0;exitDy=0;fontColor=#00FF00;strokeColor=#FF8000;strokeWidth=3;dashed=1;dashPattern=1 1;" edge="1" parent="1" source="doEv76RoAJkuPeesmXGi-27">
          <mxGeometry width="50" height="50" relative="1" as="geometry">
            <mxPoint x="230" y="410" as="sourcePoint" />
            <mxPoint x="250" y="300" as="targetPoint" />
          </mxGeometry>
        </mxCell>
      </root>
    </mxGraphModel>
  </diagram>
</mxfile>
